<svg id="Layer_1" data-name="Layer 1" xmlns="http://www.w3.org/2000/svg" viewBox="0 0 612 612"><defs><style>.cls-1{fill:#a0644d;}.cls-2{fill:#d07e5d;}.cls-3{fill:#c57b57;}</style></defs><polygon class="cls-1" points="178.64 276.01 209.69 267.23 206.79 337.55 175.75 346.32 178.64 276.01"/><polygon class="cls-1" points="175.75 346.32 206.79 337.55 234.32 344.17 203.27 352.95 175.75 346.32"/><path class="cls-1" d="M244.93,344.31l-31.05,8.78a20.9,20.9,0,0,1-10.61-.14l31-8.78A20.9,20.9,0,0,0,244.93,344.31Z"/><polygon class="cls-1" points="180.23 237.33 211.28 228.55 233.69 233.94 202.64 242.72 180.23 237.33"/><polygon class="cls-1" points="182.94 171.53 213.99 162.75 211.28 228.55 180.23 237.33 182.94 171.53"/><path class="cls-1" d="M246.47,234.21l-31,8.78q-5.37,1.51-12.79-.27l31.05-8.78Q241.11,235.73,246.47,234.21Z"/><polygon class="cls-2" points="141.71 116.89 172.76 108.11 238.65 123.97 207.6 132.75 141.71 116.89"/><path class="cls-2" d="M243.64,270.48l31.05-8.78q14.15,8.52,21.28,25.65l-31.05,8.78Q257.78,279,243.64,270.48Z"/><path class="cls-2" d="M267.08,389l-31,8.78a40.57,40.57,0,0,0,15.66-8.37q17.85-15.42,19.43-53.73.93-22.41-6.2-39.56L296,287.35q7.13,17.14,6.2,39.56-1.57,38.32-19.44,53.74A40.65,40.65,0,0,1,267.08,389Z"/><path class="cls-2" d="M207.6,132.75,238.65,124q33.39,8,50,30.56t15.14,57.94q-.82,20.07-8.59,32.8t-20.5,16.43l-31.05,8.78q12.72-3.71,20.5-16.43t8.59-32.8q1.45-35.42-15.14-57.95T207.6,132.75Z"/><path class="cls-3" d="M264.92,296.13q7.13,17.14,6.2,39.56-1.58,38.32-19.43,53.73t-50.23,7.64l-70.58-17,10.83-263.18,65.89,15.86q33.39,8,50,30.55t15.14,57.95q-.83,20.07-8.59,32.8t-20.5,16.43Q257.78,279,264.92,296.13Zm-43.71,52.19q6.36-7.41,7-23.68,1.45-35.43-19.3-41.33L178.64,276l-2.89,70.31L203.27,353q11.58,2.78,17.94-4.63M182.94,171.53l-2.71,65.8,22.41,5.39q25.34,6.1,26.66-26.26.73-17.9-4.8-27.08T205.78,177l-22.84-5.5"/><polygon class="cls-1" points="345.57 273.28 376.62 264.51 374.65 312.22 343.61 321 345.57 273.28"/><path class="cls-1" d="M425.86,390.23,394.81,399q-7,2-16.69-.34-19.92-4.79-28-23.25T343.6,321l31-8.78q-1.47,36,6.56,54.43t28,23.24Q418.83,392.22,425.86,390.23Z"/><path class="cls-1" d="M368.07,215.39l31.05-8.78q-7.49,2.12-12.24,9.79-8.56,13.83-10.26,48.11l-31.05,8.77q1.69-34.27,10.26-48.1Q360.59,217.5,368.07,215.39Z"/><path class="cls-2" d="M448.59,433.58l-31,8.78a61,61,0,0,0,27.79-16.75l31.05-8.78A61,61,0,0,1,448.59,433.58Z"/><path class="cls-2" d="M349.24,170.73,380.29,162q14.44-4.08,33.06.4l-31.05,8.78Q363.68,166.65,349.24,170.73Z"/><polygon class="cls-2" points="376.44 299.33 407.49 290.55 480.85 308.2 449.8 316.98 376.44 299.33"/><polygon class="cls-2" points="449.8 316.98 480.85 308.2 476.38 416.83 445.33 425.61 449.8 316.98"/><path class="cls-2" d="M382.3,171.13l31.05-8.78q34.71,8.35,51.49,33.75t17.69,71.25l-31,8.78q-.92-45.85-17.69-71.25T382.3,171.13Z"/><path class="cls-3" d="M382.3,171.13q34.71,8.35,51.49,33.75t17.69,71.25L409.6,266.05q-.72-25.55-7.08-36.3t-20.71-14.2q-17.43-4.19-26,9.63t-10.26,48.1l-2,47.72q-1.47,36,6.56,54.42t28,23.25q12.74,3.06,20.9-1.36l4-2.34,2-48.25-30.16-7.26,1.65-40.13L449.8,317l-4.47,108.63a61.17,61.17,0,0,1-31.56,17.69q-18.43,4.05-39.95-1.13-36.76-8.84-56-41.85t-17.58-86.83l2-47.35q2.25-54.4,22.71-79.15T382.3,171.13Z"/></svg>